<svg width="1440" height="960" viewBox="0 0 1440 960" fill="none" xmlns="http://www.w3.org/2000/svg">
  <rect width="1440" height="960" fill="#F7F0E7"/>
  <g opacity="0.35">
    <path d="M72 52H1368" stroke="#D8C8B9"/>
    <path d="M72 140H1368" stroke="#E9DED3"/>
    <path d="M72 228H1368" stroke="#E9DED3"/>
    <path d="M72 316H1368" stroke="#E9DED3"/>
    <path d="M72 404H1368" stroke="#E9DED3"/>
    <path d="M72 492H1368" stroke="#E9DED3"/>
    <path d="M72 580H1368" stroke="#E9DED3"/>
    <path d="M72 668H1368" stroke="#E9DED3"/>
    <path d="M72 756H1368" stroke="#E9DED3"/>
    <path d="M72 844H1368" stroke="#E9DED3"/>
  </g>
  <path d="M72 52H1368" stroke="#D6C6B7"/>
  <text x="72" y="103" fill="#6A5546" font-size="16" font-family="Arial, sans-serif" font-weight="700" letter-spacing="5">CONTENT</text>
  <text x="72" y="164" fill="#201712" font-size="72" font-family="Georgia, serif">Writing and</text>
  <text x="72" y="230" fill="#201712" font-size="72" font-family="Georgia, serif">content that</text>
  <text x="72" y="296" fill="#201712" font-size="72" font-family="Georgia, serif">show how I think.</text>
  <text x="840" y="187" fill="#6D5B4C" font-size="21" font-family="Arial, sans-serif">A more media-forward option: feature one strong content lane,</text>
  <text x="840" y="223" fill="#6D5B4C" font-size="21" font-family="Arial, sans-serif">then let LinkedIn, Medium, and Substack support it.</text>

  <g filter="url(#shadow2)">
    <rect x="72" y="356" width="770" height="530" rx="34" fill="#FFF9F3" fill-opacity="0.92"/>
    <rect x="862" y="356" width="506" height="256" rx="34" fill="#FFF9F3" fill-opacity="0.92"/>
    <rect x="862" y="630" width="506" height="256" rx="34" fill="#FFF9F3" fill-opacity="0.92"/>
  </g>
  <rect x="72.5" y="356.5" width="769" height="529" rx="33.5" stroke="#DDCCBC"/>
  <rect x="862.5" y="356.5" width="505" height="255" rx="33.5" stroke="#DDCCBC"/>
  <rect x="862.5" y="630.5" width="505" height="255" rx="33.5" stroke="#DDCCBC"/>

  <text x="98" y="390" fill="#8D684B" font-size="13" font-family="Arial, sans-serif" font-weight="700" letter-spacing="2">FEATURED CONTENT LANE</text>
  <text x="98" y="446" fill="#201712" font-size="48" font-family="Georgia, serif">Instagram reels and</text>
  <text x="98" y="492" fill="#201712" font-size="48" font-family="Georgia, serif">visual notes</text>
  <text x="98" y="530" fill="#6D5B4C" font-size="19" font-family="Arial, sans-serif">Use one dominant reel preview to make the section feel alive, then</text>
  <text x="98" y="560" fill="#6D5B4C" font-size="19" font-family="Arial, sans-serif">support it with smaller writing surfaces instead of giving every</text>
  <text x="98" y="590" fill="#6D5B4C" font-size="19" font-family="Arial, sans-serif">platform equal weight.</text>

  <rect x="98" y="622" width="454" height="214" rx="28" fill="url(#bigReel)" stroke="#DCCBBB"/>
  <rect x="124" y="648" width="124" height="40" rx="20" fill="#FFF8F0" fill-opacity="0.88" stroke="#E5D4C5"/>
  <text x="149" y="673" fill="#7E4E2F" font-size="13" font-family="Arial, sans-serif" font-weight="700" letter-spacing="2">LATEST REEL</text>
  <rect x="122" y="748" width="402" height="66" rx="22" fill="#FFF9F2" fill-opacity="0.84"/>
  <circle cx="325" cy="722" r="28" fill="#FFF9F3"/>
  <path d="M318 708L337 722L318 736V708Z" fill="#A06440"/>

  <rect x="568" y="622" width="118" height="100" rx="22" fill="url(#thumbA)" stroke="#DCCBBB"/>
  <rect x="704" y="622" width="118" height="100" rx="22" fill="url(#thumbB)" stroke="#DCCBBB"/>
  <rect x="568" y="736" width="118" height="100" rx="22" fill="url(#thumbC)" stroke="#DCCBBB"/>
  <rect x="704" y="736" width="118" height="100" rx="22" fill="url(#thumbD)" stroke="#DCCBBB"/>
  <rect x="584" y="786" width="86" height="28" rx="14" fill="#FFF9F2" fill-opacity="0.82"/>
  <rect x="720" y="786" width="86" height="28" rx="14" fill="#FFF9F2" fill-opacity="0.82"/>

  <g>
    <rect x="98" y="846" width="110" height="34" rx="17" fill="#FFF7EF" stroke="#D9C8B8"/>
    <rect x="220" y="846" width="124" height="34" rx="17" fill="#FFF7EF" stroke="#D9C8B8"/>
    <rect x="356" y="846" width="128" height="34" rx="17" fill="#FFF7EF" stroke="#D9C8B8"/>
    <text x="126" y="867" fill="#8F5636" font-size="12" font-family="Arial, sans-serif" font-weight="700" letter-spacing="1.8">INSTAGRAM</text>
    <text x="245" y="867" fill="#8F5636" font-size="12" font-family="Arial, sans-serif" font-weight="700" letter-spacing="1.8">IDEAS IN PUBLIC</text>
    <text x="380" y="867" fill="#8F5636" font-size="12" font-family="Arial, sans-serif" font-weight="700" letter-spacing="1.8">OPEN PROFILE</text>
  </g>

  <text x="888" y="390" fill="#8D684B" font-size="13" font-family="Arial, sans-serif" font-weight="700" letter-spacing="2">PROFESSIONAL ESSAYS</text>
  <text x="888" y="436" fill="#201712" font-size="38" font-family="Georgia, serif">LinkedIn posts</text>
  <text x="888" y="468" fill="#6D5B4C" font-size="18" font-family="Arial, sans-serif">Shorter public writing on PM judgment, systems</text>
  <text x="888" y="496" fill="#6D5B4C" font-size="18" font-family="Arial, sans-serif">thinking, and career direction.</text>
  <rect x="888" y="522" width="454" height="70" rx="22" fill="url(#linkedinCard)" stroke="#E3D5C8"/>
  <circle cx="920" cy="557" r="18" fill="#7DA1EB"/>
  <rect x="950" y="546" width="106" height="10" rx="5" fill="#DCE7FF"/>
  <rect x="950" y="564" width="84" height="10" rx="5" fill="#E9F0FF"/>
  <rect x="1124" y="536" width="194" height="42" rx="14" fill="url(#linkedinPanel2)"/>

  <text x="888" y="664" fill="#8D684B" font-size="13" font-family="Arial, sans-serif" font-weight="700" letter-spacing="2">ARCHIVE + ESSAYS</text>
  <text x="888" y="710" fill="#201712" font-size="38" font-family="Georgia, serif">Medium and Substack</text>
  <text x="888" y="742" fill="#6D5B4C" font-size="18" font-family="Arial, sans-serif">Longer reflections, essays, and notes that do not</text>
  <text x="888" y="770" fill="#6D5B4C" font-size="18" font-family="Arial, sans-serif">need to compete with reels visually.</text>
  <rect x="888" y="792" width="454" height="74" rx="22" fill="#FFF7EF" stroke="#E3D5C8"/>
  <rect x="904" y="809" width="40" height="40" rx="12" fill="#F2DCC7"/>
  <text x="914" y="834" fill="#8F5636" font-size="12" font-family="Arial, sans-serif" font-weight="700">ME</text>
  <text x="962" y="823" fill="#8F5636" font-size="12" font-family="Arial, sans-serif" font-weight="700" letter-spacing="1.8">MEDIUM</text>
  <rect x="962" y="833" width="126" height="10" rx="5" fill="#EAD8C5"/>
  <rect x="1112" y="809" width="40" height="40" rx="12" fill="#F4E4D2"/>
  <text x="1122" y="834" fill="#8F5636" font-size="12" font-family="Arial, sans-serif" font-weight="700">SU</text>
  <text x="1170" y="823" fill="#8F5636" font-size="12" font-family="Arial, sans-serif" font-weight="700" letter-spacing="1.8">SUBSTACK</text>
  <rect x="1170" y="833" width="110" height="10" rx="5" fill="#EAD8C5"/>

  <defs>
    <filter id="shadow2" x="48" y="340" width="1344" height="578" filterUnits="userSpaceOnUse" color-interpolation-filters="sRGB">
      <feDropShadow dx="0" dy="18" stdDeviation="22" flood-color="#432C19" flood-opacity="0.12"/>
    </filter>
    <linearGradient id="bigReel" x1="325" y1="622" x2="325" y2="836" gradientUnits="userSpaceOnUse">
      <stop stop-color="#EADACE"/>
      <stop offset="1" stop-color="#F6ECE2"/>
    </linearGradient>
    <linearGradient id="thumbA" x1="627" y1="622" x2="627" y2="722" gradientUnits="userSpaceOnUse">
      <stop stop-color="#E5D6C8"/>
      <stop offset="1" stop-color="#F4EAE1"/>
    </linearGradient>
    <linearGradient id="thumbB" x1="763" y1="622" x2="763" y2="722" gradientUnits="userSpaceOnUse">
      <stop stop-color="#E7D9CB"/>
      <stop offset="1" stop-color="#F5ECE3"/>
    </linearGradient>
    <linearGradient id="thumbC" x1="627" y1="736" x2="627" y2="836" gradientUnits="userSpaceOnUse">
      <stop stop-color="#E6D7C9"/>
      <stop offset="1" stop-color="#F6ECE2"/>
    </linearGradient>
    <linearGradient id="thumbD" x1="763" y1="736" x2="763" y2="836" gradientUnits="userSpaceOnUse">
      <stop stop-color="#E8D9CA"/>
      <stop offset="1" stop-color="#F6ECE2"/>
    </linearGradient>
    <linearGradient id="linkedinCard" x1="1115" y1="522" x2="1115" y2="592" gradientUnits="userSpaceOnUse">
      <stop stop-color="#EEF4FF"/>
      <stop offset="1" stop-color="#F8FBFF"/>
    </linearGradient>
    <linearGradient id="linkedinPanel2" x1="1221" y1="536" x2="1221" y2="578" gradientUnits="userSpaceOnUse">
      <stop stop-color="#D9E8FF"/>
      <stop offset="1" stop-color="#EDF5FF"/>
    </linearGradient>
  </defs>
</svg>
